<?xml version="1.0" standalone="no"?>
<!DOCTYPE svg PUBLIC "-//W3C//DTD SVG 20010904//EN"
 "http://www.w3.org/TR/2001/REC-SVG-20010904/DTD/svg10.dtd">
<svg version="1.0" xmlns="http://www.w3.org/2000/svg"
 width="89.000000pt" height="89.000000pt" viewBox="0 0 89.000000 89.000000"
 preserveAspectRatio="xMidYMid meet">
<metadata>
Created by potrace 1.11, written by Peter Selinger 2001-2013
</metadata>
<g transform="translate(0.000000,89.000000) scale(0.100000,-0.100000)"
fill="#000000" stroke="none">
<path d="M314 866 c-113 -26 -194 -78 -248 -161 -85 -127 -86 -283 -4 -416
l30 -50 -40 -66 c-39 -64 -40 -68 -26 -95 8 -16 26 -33 40 -39 44 -16 401 -23
469 -9 132 27 232 104 294 228 118 235 53 460 -163 561 -113 53 -248 71 -352
47z m197 -110 c124 -27 210 -89 249 -178 59 -137 -29 -346 -178 -420 -44 -21
-59 -23 -224 -23 -97 0 -179 3 -183 7 -4 3 5 24 19 45 34 49 33 75 -4 117 -97
110 -102 268 -12 368 42 46 78 67 147 84 67 16 107 16 186 0z"/>
<path d="M247 512 c-33 -37 -11 -92 37 -92 48 0 73 62 38 93 -24 22 -55 21
-75 -1z"/>
<path d="M412 505 c-30 -22 -30 -69 2 -90 48 -32 104 22 76 74 -6 12 -15 21
-20 21 -4 0 -14 2 -22 5 -7 3 -23 -2 -36 -10z"/>
<path d="M598 509 c-44 -25 -43 -75 3 -99 53 -29 96 60 47 94 -26 19 -27 19
-50 5z"/>
</g>
</svg>
